<?xml version="1.0" encoding="utf-8"?>
<!-- Generator: Adobe Illustrator 24.2.3, SVG Export Plug-In . SVG Version: 6.00 Build 0)  -->
<svg version="1.1" id="Layer_1" xmlns="http://www.w3.org/2000/svg" xmlns:xlink="http://www.w3.org/1999/xlink" x="0px" y="0px"
	 width="226px" height="48px" viewBox="0 0 226 48" style="enable-background:new 0 0 226 48;" xml:space="preserve">
<style type="text/css">
	.st0{fill:#6F6F6E;}
</style>
<path class="st0" d="M10,0.9H1v38.9h27.6v-7.6H10V0.9z M48.3,25h7.3v6.8c-1.3,0.5-4,1-6.5,1c-8.1,0-10.8-4.1-10.8-12.4
	c0-8,2.6-12.6,10.6-12.6c4.5,0,7.1,1.4,9.2,4.1l5.6-5.1c-3.4-4.9-9.4-6.4-14.9-6.4c-12.6,0-19.2,6.9-19.2,19.9
	c0,13,6,20.1,19.1,20.1c6,0,11.9-1.5,15.1-3.8V17.7H48.3V25z"/>
<g>
	<polygon class="st0" points="87.4,6.2 99.4,6.2 99.4,39.8 106.1,39.8 106.1,6.2 118,6.2 118,0.9 87.4,0.9 	"/>
	<path class="st0" d="M155.4,3.9c-2.2,0-3.9,1.8-3.9,3.9c0,2.2,1.8,4,3.9,4c2.2,0,3.9-1.8,3.9-4C159.4,5.7,157.6,3.9,155.4,3.9z"/>
	<path class="st0" d="M152.1,15.4v24.3h6.5V15.4c-1,0.4-2.1,0.7-3.3,0.7C154.2,16.1,153.1,15.8,152.1,15.4z"/>
	<path class="st0" d="M133.6,12.6c-2,0-3.8,0.4-5.4,1V0.9h-6.7v38.9h6.7V22.6c0-2.4,2.5-4.3,5.5-4.3c3.6,0,5.4,2.2,5.4,4.6v16.9h6.6
		V21.9C145.7,17.1,141.4,12.6,133.6,12.6z"/>
	<path class="st0" d="M176.9,12.6c-7.8,0-12,4.5-12,9.2v17.9h6.6V22.9c0-2.4,1.8-4.6,5.5-4.6c3.6,0,5.5,2.2,5.5,4.6v16.9h6.6V21.9
		C188.9,17.1,184.6,12.7,176.9,12.6z"/>
	<path class="st0" d="M225.5,45l-6.6-7.6c0.7-0.6,1.3-1.2,1.9-2c2.5-3.2,3.8-9,3.9-15.6c-0.1-6.6-1.4-11.6-3.9-14.8
		c-2.5-3.3-6.4-5-11.3-5c-4.9,0-8.8,1.7-11.3,5c-2.5,3.2-3.8,8.2-3.9,14.8c0.1,6.6,1.4,12.4,3.9,15.6c2.5,3.3,6.4,5,11.3,5
		c1.3,0,2.6-0.1,3.8-0.4l4.3,4.9H225.5z M203.3,31.3c-1.4-2.4-2.1-6.5-2.2-11.3c0-4.8,0.8-8.5,2.2-10.9c1.4-2.3,3.6-3.6,6.2-3.6
		c2.7,0,4.9,1.2,6.2,3.6c1.4,2.4,2.1,6,2.2,10.9c0,4.8-0.8,8.9-2.2,11.3c-1.4,2.3-3.6,3.6-6.2,3.6C206.8,34.9,204.6,33.7,203.3,31.3
		z"/>
</g>
</svg>
